<svg width="100" height="100" viewBox="0 0 100 100" fill="none" xmlns="http://www.w3.org/2000/svg">
<g clip-path="url(#clip0_2001_133)">
<mask id="mask0_2001_133" style="mask-type:luminance" maskUnits="userSpaceOnUse" x="-7" y="-30" width="114" height="160">
<path d="M-6.01501 -29.3234H106.015V129.323H-6.01501V-29.3234Z" fill="white"/>
</mask>
<g mask="url(#mask0_2001_133)">
<path fill-rule="evenodd" clip-rule="evenodd" d="M50 -0.0769882C77.6215 -0.0769882 100.013 22.3435 100.013 50.0005C100.013 77.6576 77.6215 100.078 50 100.078C22.3784 100.078 -0.0130615 77.6576 -0.0130615 50.0005C-0.0130615 22.3435 22.3784 -0.0769882 50 -0.0769882Z" fill="#2D2652"/>
<path fill-rule="evenodd" clip-rule="evenodd" d="M50 1.4138C76.7263 1.4138 98.5242 23.24 98.5242 50.0005C98.5242 76.7612 76.7263 98.5874 50 98.5874C23.2737 98.5874 1.47559 76.7612 1.47559 50.0005C1.47559 23.24 23.2737 1.4138 50 1.4138Z" fill="#FEFEFE"/>
<path fill-rule="evenodd" clip-rule="evenodd" d="M50 3.83187C75.3961 3.83187 96.109 24.5717 96.109 50.0003C96.109 75.4291 75.3961 96.1689 50 96.1689C24.6041 96.1689 3.89093 75.4291 3.89093 50.0003C3.89093 24.5717 24.6041 3.83187 50 3.83187Z" fill="#2D2652"/>
<path fill-rule="evenodd" clip-rule="evenodd" d="M50 16.2223C68.5805 16.2223 83.7346 31.396 83.7346 50.0006C83.7346 68.605 68.5805 83.7788 50 83.7788C31.4195 83.7788 16.2654 68.605 16.2654 50.0006C16.2654 31.396 31.4195 16.2223 50 16.2223Z" fill="#CF2523"/>
<path fill-rule="evenodd" clip-rule="evenodd" d="M43.2869 92.8913H42.0435V88.4754C41.5888 88.8768 41.0541 89.173 40.4376 89.3635V88.3005C40.7611 88.2007 41.1145 88.0115 41.495 87.7326C41.8758 87.4524 42.1372 87.1264 42.2778 86.7536H43.2869V92.8913ZM45.1725 91.4784L46.3764 91.3531C46.4067 91.5838 46.4836 91.7545 46.6077 91.8653C46.7313 91.9765 46.8945 92.0319 47.0985 92.0319C47.3554 92.0319 47.5729 91.9209 47.7527 91.6989C47.9339 91.4767 48.0487 91.0158 48.0986 90.314C47.7858 90.6572 47.3947 90.8279 46.9263 90.8279C46.4157 90.8279 45.9746 90.6415 45.6044 90.2716C45.2342 89.9 45.0484 89.4176 45.0484 88.8227C45.0484 88.2024 45.2447 87.7028 45.6362 87.3227C46.0259 86.9443 46.5245 86.7536 47.1288 86.7536C47.7875 86.7536 48.3267 86.9941 48.7497 87.4737C49.1713 87.9534 49.3828 88.7417 49.3828 89.8388C49.3828 90.9574 49.1623 91.763 48.7226 92.2582C48.2828 92.7519 47.7103 92.9995 47.0049 92.9995C46.4972 92.9995 46.0878 92.8729 45.7751 92.6183C45.4623 92.3633 45.2615 91.9834 45.1725 91.4784ZM47.9883 88.9183C47.9883 88.5395 47.8963 88.2465 47.712 88.0386C47.5276 87.8294 47.313 87.7256 47.0714 87.7256C46.8418 87.7256 46.6498 87.811 46.4987 87.9817C46.3461 88.1526 46.2706 88.4328 46.2706 88.8227C46.2706 89.2169 46.3536 89.5071 46.5184 89.6909C46.6829 89.8759 46.8901 89.9682 47.1378 89.9682C47.3764 89.9682 47.5789 89.8802 47.7421 89.7022C47.9068 89.5243 47.9883 89.2623 47.9883 88.9183ZM50.2137 91.4784L51.4178 91.3531C51.4481 91.5838 51.5249 91.7545 51.6489 91.8653C51.7728 91.9765 51.9359 92.0319 52.1399 92.0319C52.3966 92.0319 52.6142 91.9209 52.7941 91.6989C52.9754 91.4767 53.0902 91.0158 53.14 90.314C52.8272 90.6572 52.4362 90.8279 51.9676 90.8279C51.4572 90.8279 51.0158 90.6415 50.6456 90.2716C50.2755 89.9 50.0897 89.4176 50.0897 88.8227C50.0897 88.2024 50.2862 87.7028 50.6775 87.3227C51.0672 86.9443 51.5657 86.7536 52.1701 86.7536C52.8289 86.7536 53.3681 86.9941 53.7912 87.4737C54.2126 87.9534 54.4241 88.7417 54.4241 89.8388C54.4241 90.9574 54.2035 91.763 53.7639 92.2582C53.3243 92.7519 52.7518 92.9995 52.0462 92.9995C51.5386 92.9995 51.1291 92.8729 50.8163 92.6183C50.5037 92.3633 50.3029 91.9834 50.2137 91.4784ZM53.0297 88.9183C53.0297 88.5395 52.9375 88.2465 52.7533 88.0386C52.569 87.8294 52.3543 87.7256 52.1128 87.7256C51.8831 87.7256 51.6913 87.811 51.5402 87.9817C51.3873 88.1526 51.3121 88.4328 51.3121 88.8227C51.3121 89.2169 51.3951 89.5071 51.5597 89.6909C51.7244 89.8759 51.9314 89.9682 52.1793 89.9682C52.4179 89.9682 52.6202 89.8802 52.7834 89.7022C52.9481 89.5243 53.0297 89.2623 53.0297 88.9183ZM59.4428 88.2764L58.2389 88.4015C58.2101 88.1683 58.1331 87.9958 58.0091 87.8837C57.8855 87.7725 57.7234 87.7169 57.5258 87.7169C57.2644 87.7169 57.0423 87.8281 56.8594 88.0514C56.6784 88.2734 56.5649 88.736 56.5165 89.4391C56.8278 89.0946 57.2115 88.9224 57.6724 88.9224C58.192 88.9224 58.6362 89.1088 59.0064 89.4817C59.3766 89.8531 59.5623 90.3342 59.5623 90.9235C59.5623 91.5495 59.3675 92.0503 58.9776 92.4289C58.5893 92.8062 58.0878 92.9954 57.4774 92.9954C56.8233 92.9954 56.2839 92.756 55.8625 92.2767C55.4409 91.7971 55.2294 91.0115 55.2294 89.9187C55.2294 88.7986 55.4485 87.9917 55.8881 87.4965C56.3276 87.0012 56.8989 86.7536 57.6013 86.7536C58.0938 86.7536 58.5016 86.8846 58.8249 87.1435C59.1483 87.4039 59.3538 87.781 59.4428 88.2764ZM56.624 90.8323C56.624 91.2121 56.716 91.5067 56.9017 91.713C57.0877 91.9209 57.3005 92.0247 57.5394 92.0247C57.7705 92.0247 57.9607 91.9392 58.1151 91.7701C58.269 91.6007 58.3445 91.3218 58.3445 90.9361C58.3445 90.5392 58.2632 90.2473 58.0968 90.0623C57.9323 89.8772 57.7251 89.7849 57.4774 89.7849C57.2388 89.7849 57.0363 89.8729 56.8716 90.0497C56.7055 90.2258 56.624 90.4878 56.624 90.8323Z" fill="#FEFEFE"/>
<path fill-rule="evenodd" clip-rule="evenodd" d="M25.2724 79.0316L25.7861 80.6253L27.4589 80.6221L26.1036 81.6039L26.6236 83.1958L25.2724 82.2086L23.9211 83.1958L24.4411 81.6039L23.0861 80.6221L24.7586 80.6253L25.2724 79.0316Z" fill="#FEFEFE"/>
<path fill-rule="evenodd" clip-rule="evenodd" d="M74.7271 79.0316L75.2407 80.6253L76.9134 80.6221L75.5584 81.6039L76.0784 83.1958L74.7271 82.2086L73.3757 83.1958L73.8957 81.6039L72.5406 80.6221L74.2134 80.6253L74.7271 79.0316Z" fill="#FEFEFE"/>
<path fill-rule="evenodd" clip-rule="evenodd" d="M52.4692 46.3083H59.8802V48.3036H57.3926V54.3864H54.9547V48.3036H52.4692V46.3083ZM27.625 53.0319H24.8472L24.4652 54.3655H21.974L24.9391 46.2874H27.5976L30.5645 54.3655H28.0125L27.625 53.0319ZM27.1143 51.2849L26.2416 48.3808L25.3746 51.2849H27.1143ZM31.5273 46.2874H33.9671V52.3758H37.7718V54.3655H31.5273V46.2874ZM43.9191 53.0319H41.1415L40.7592 54.3655H38.2681L41.2331 46.2874H43.8916L46.8586 54.3655H44.3066L43.9191 53.0319ZM43.4083 51.2849L42.5356 48.3808L41.6686 51.2849H43.4083ZM47.6146 50.6749H52.1586V52.0899H47.6146V50.6749ZM60.4828 50.3519C60.4828 49.0334 60.8427 48.0066 61.5595 47.2732C62.2775 46.5377 63.277 46.171 64.5575 46.171C65.8712 46.171 66.8835 46.532 67.5943 47.2543C68.3036 47.9745 68.6597 48.9865 68.6597 50.2862C68.6597 51.2304 68.5039 52.0053 68.1933 52.6089C67.8828 53.2126 67.4347 53.6828 66.8485 54.0194C66.2605 54.3563 65.5311 54.5234 64.6548 54.5234C63.7656 54.5234 63.029 54.3787 62.445 54.0893C61.8625 53.7976 61.3903 53.3387 61.0265 52.7104C60.6646 52.0824 60.4828 51.296 60.4828 50.3519ZM62.9225 50.3632C62.9225 51.1794 63.0696 51.7645 63.3651 52.1218C63.6609 52.4772 64.0652 52.6558 64.5741 52.6558C65.0978 52.6558 65.5038 52.4809 65.7902 52.1333C66.0769 51.7831 66.222 51.1569 66.222 50.2543C66.222 49.4924 66.0712 48.9377 65.7722 48.5858C65.4725 48.2361 65.0666 48.061 64.5519 48.061C64.0616 48.061 63.6664 48.238 63.3689 48.5953C63.0711 48.9509 62.9225 49.5414 62.9225 50.3632ZM69.8489 50.3519C69.8489 49.0334 70.2088 48.0066 70.9252 47.2732C71.6436 46.5377 72.6429 46.171 73.9234 46.171C75.2372 46.171 76.2492 46.532 76.9604 47.2543C77.6693 47.9745 78.026 48.9865 78.026 50.2862C78.026 51.2304 77.8698 52.0053 77.559 52.6089C77.2487 53.2126 76.8006 53.6828 76.2146 54.0194C75.6266 54.3563 74.8972 54.5234 74.0209 54.5234C73.1317 54.5234 72.3951 54.3787 71.8107 54.0893C71.2284 53.7976 70.7562 53.3387 70.3924 52.7104C70.0305 52.0824 69.8489 51.296 69.8489 50.3519ZM72.2885 50.3632C72.2885 51.1794 72.4353 51.7645 72.7312 52.1218C73.0268 52.4772 73.4311 52.6558 73.9402 52.6558C74.4636 52.6558 74.8695 52.4809 75.1561 52.1333C75.4427 51.7831 75.588 51.1569 75.588 50.2543C75.588 49.4924 75.4373 48.9377 75.1379 48.5858C74.8384 48.2361 74.4323 48.061 73.918 48.061C73.4273 48.061 73.0325 48.238 72.7348 48.5953C72.4372 48.9509 72.2885 49.5414 72.2885 50.3632Z" fill="#FEFEFE"/>
<path fill-rule="evenodd" clip-rule="evenodd" d="M46.6055 20.3C48.5696 20.3 50.1717 21.9042 50.1717 23.8706C50.1717 25.8372 48.5696 27.4414 46.6055 27.4414C44.6415 27.4414 43.0394 25.8372 43.0394 23.8706C43.0394 21.9042 44.6415 20.3 46.6055 20.3ZM43.8893 32.0855L40.0389 26.0584L22.627 43.0356H32.1619L43.8893 32.0855ZM33.5238 43.0356H33.5244H47.2322L63.6742 27.6835L57.427 20.7171L57.3662 20.7736L33.5238 43.0356ZM62.3028 43.0355L70.5608 35.325L64.2938 28.3766L48.594 43.0356L62.3028 43.0355ZM77.373 43.0356L71.1803 36.0181L63.6644 43.0355L77.373 43.0356Z" fill="#FEFEFE"/>
<path fill-rule="evenodd" clip-rule="evenodd" d="M56.0133 76.8257C60.2184 75.8776 64.0665 73.9676 67.3143 71.3404C65.3049 70.1228 63.0787 69.1143 60.6887 68.3556C59.9587 69.7825 59.1308 71.2132 58.357 72.601C57.5705 74.0115 56.7791 75.4195 55.9843 76.8257H56.0133ZM43.9867 76.8257C39.7816 75.8776 35.9333 73.9676 32.6855 71.3404C34.6951 70.1228 36.9213 69.1143 39.3111 68.3556C40.0413 69.7825 40.869 71.2132 41.6428 72.601C42.4293 74.0115 43.2207 75.4195 44.0157 76.8257H43.9867ZM41.0461 67.8565C43.5598 67.2067 46.2309 66.8274 49.0029 66.7629L48.5541 76.8257H46.039C46.039 76.8257 42.5027 70.5904 41.0461 67.8565ZM31.4316 70.2627C27.9303 67.0705 25.2438 62.9967 23.7303 58.3971H36.522C36.4 61.4159 37.3839 64.2983 38.6467 66.9981C36.0392 67.8229 33.6139 68.9268 31.4316 70.2627ZM38.2839 58.3971H49.3761L49.0679 65.3076C46.0307 65.3688 43.1061 65.7845 40.3591 66.5036C39.4629 64.6426 38.1333 61.5897 38.2839 58.3971ZM58.9537 67.8565C56.4402 67.2067 53.7691 66.8274 50.9969 66.7629L51.4457 76.8257H53.9608C53.9608 76.8257 57.4971 70.5904 58.9537 67.8565ZM68.5682 70.2627C72.0695 67.0705 74.756 62.9967 76.2695 58.3971H63.4778C63.6 61.4159 62.6159 64.2983 61.3531 66.9981C63.9608 67.8229 66.3859 68.9268 68.5682 70.2627ZM61.7159 58.3971H50.6237L50.932 65.3076C53.9693 65.3688 56.8937 65.7845 59.6407 66.5036C60.5371 64.6426 61.8667 61.5897 61.7159 58.3971Z" fill="#FEFEFE"/>
<path d="M16.7046 68.9041L17.6317 70.5153L18.5225 70.3099L19.3577 71.7613L13.7644 72.6807L12.869 71.124L16.473 66.7478L17.3296 68.2369L16.7046 68.9041ZM15.8828 69.7793L14.52 71.2346L16.4622 70.7861L15.8828 69.7793ZM11.2717 68.2476L10.6695 66.7231L14.3898 65.2497L13.4469 62.8629L14.6597 62.3829L16.2046 66.294L11.2717 68.2476ZM12.6825 58.7777L13.1915 60.5658L14.1054 60.5828L14.5641 62.1939L8.91529 61.7274L8.42352 59.9997L12.9798 56.6291L13.4503 58.2821L12.6825 58.7777ZM11.6733 59.4269L9.99856 60.5079L11.9916 60.5447L11.6733 59.4269ZM10.8125 56.9545L10.332 53.1872L11.1257 53.0856L11.6063 56.8531L10.8125 56.9545ZM7.33912 52.8978L7.21246 47.9069L8.52346 47.8734L8.5658 49.5495L12.5579 49.4478L12.5997 51.0866L8.60758 51.1884L8.65011 52.8644L7.33912 52.8978ZM9.97089 47.1561C9.11233 47.0463 8.47415 46.7218 8.05748 46.1812C7.63967 45.6403 7.48592 44.9427 7.59507 44.0866C7.70686 43.2096 8.02831 42.564 8.5579 42.1495C9.0888 41.7349 9.77799 41.5824 10.6243 41.6906C11.2392 41.7692 11.7294 41.9365 12.0962 42.1941C12.4628 42.4517 12.7308 42.7913 12.9002 43.2106C13.0694 43.631 13.1163 44.1332 13.0415 44.7181C12.9659 45.3117 12.8087 45.7915 12.5705 46.1574C12.3311 46.5219 11.9918 46.8 11.5519 46.9894C11.1133 47.1788 10.5857 47.2347 9.97089 47.1561ZM10.1819 45.5305C10.7124 45.5981 11.107 45.5476 11.3639 45.3799C11.6206 45.2109 11.7714 44.9559 11.8149 44.6148C11.8595 44.2653 11.7802 43.9785 11.5781 43.7582C11.3749 43.5366 10.9804 43.3888 10.3913 43.3136C9.89636 43.2503 9.52223 43.3048 9.26891 43.4755C9.01428 43.6472 8.86579 43.9038 8.82194 44.247C8.78016 44.5758 8.86259 44.8557 9.06885 45.084C9.27474 45.3136 9.64681 45.4621 10.1819 45.5305ZM10.9136 40.4955C10.094 40.2168 9.53295 39.7715 9.23221 39.1587C8.93015 38.5455 8.91811 37.8311 9.19532 37.0141C9.47913 36.1768 9.92234 35.6081 10.5238 35.3073C11.1264 35.0068 11.832 34.9947 12.6399 35.2695C13.2269 35.469 13.6741 35.7306 13.9825 36.0562C14.2906 36.3816 14.4856 36.7678 14.5682 37.2125C14.6506 37.6583 14.5966 38.1596 14.4073 38.7181C14.2151 39.2846 13.966 39.7235 13.6596 40.0346C13.3524 40.344 12.9648 40.5492 12.4961 40.647C12.0285 40.7454 11.5006 40.6951 10.9136 40.4955ZM11.4434 38.9443C11.9498 39.1165 12.3467 39.1457 12.6316 39.0323C12.917 38.9177 13.1153 38.698 13.2258 38.3725C13.3389 38.0388 13.3182 37.7418 13.1639 37.4857C13.0086 37.2279 12.6514 37.0048 12.0891 36.8136C11.6167 36.653 11.2392 36.6317 10.9571 36.7485C10.6732 36.8663 10.4768 37.0881 10.3655 37.4158C10.2592 37.7296 10.2846 38.0201 10.4414 38.2851C10.5976 38.551 10.9326 38.7705 11.4434 38.9443ZM11.9321 30.6129L12.6832 29.1478L17.4023 31.5738L16.651 33.0389L11.9321 30.6129ZM13.6329 27.4322L14.5202 26.1843L18.0599 26.2629L15.6739 24.5619L16.572 23.2989L20.8932 26.3796L19.9951 27.6427L16.475 27.5645L18.8478 29.2561L17.9541 30.513L13.6329 27.4322ZM17.5226 22.16L20.9634 18.5468L21.9125 19.453L20.7569 20.6662L23.6471 23.4256L22.5172 24.6122L19.627 21.8528L18.4716 23.0662L17.5226 22.16ZM22.1073 17.5781L25.5545 14.863L26.2553 15.7551L24.1007 17.452L24.6229 18.1166L26.6203 16.5437L27.2889 17.3949L25.2916 18.968L25.9375 19.7902L28.1562 18.0428L28.8982 18.9872L25.3868 21.7528L22.1073 17.5781ZM29.6736 18.5071L27.0255 13.9046L29.3922 12.5395C29.8307 12.2864 30.1883 12.13 30.4631 12.0728C30.7384 12.014 31.0066 12.0462 31.266 12.1677C31.5259 12.2902 31.7402 12.4992 31.909 12.7926C32.0558 13.0476 32.1283 13.2997 32.1256 13.5481C32.1249 13.7968 32.0615 14.0331 31.9365 14.2594C31.8575 14.4019 31.7257 14.5592 31.5426 14.729C31.7444 14.6883 31.8994 14.6731 32.0093 14.6855C32.082 14.6932 32.2049 14.7309 32.3754 14.7967C32.5446 14.8632 32.666 14.9201 32.7377 14.9685L34.1928 15.9L32.588 16.8258L31.0219 15.8599C30.8209 15.7334 30.6675 15.665 30.5611 15.6535C30.4177 15.642 30.2807 15.6739 30.1512 15.7487L30.0263 15.8208L31.0986 17.6849L29.6736 18.5071ZM29.5268 14.9531L30.127 14.6067C30.1913 14.5698 30.3052 14.4756 30.4672 14.3263C30.551 14.2538 30.6003 14.1612 30.6142 14.0489C30.6291 13.9362 30.6078 13.8302 30.5499 13.7293C30.4642 13.5805 30.3513 13.493 30.2115 13.468C30.0709 13.442 29.8718 13.5042 29.6117 13.6541L28.9869 14.0146L29.5268 14.9531ZM32.783 10.8236L34.2056 10.2601L37.1327 12.2546L36.0554 9.52767L37.4951 8.95726L39.4462 13.8965L38.0065 14.4667L35.0956 12.483L36.1668 15.1952L34.7339 15.7626L32.783 10.8236ZM43.5094 12.2122L41.6814 12.5406L41.5732 13.4493L39.9265 13.7454L40.955 8.16429L42.7209 7.84696L45.6144 12.7234L43.9251 13.027L43.5094 12.2122ZM42.9651 11.1419L42.0584 9.36523L41.8226 11.3473L42.9651 11.1419ZM44.8552 7.49269L49.8269 7.11205L49.9266 8.42133L48.2573 8.54909L48.5616 12.5359L46.9292 12.6611L46.6247 8.67422L44.9551 8.80198L44.8552 7.49269ZM51.1727 7.24075L52.8171 7.28259L52.6822 12.5923L51.0379 12.5504L51.1727 7.24075ZM54.1263 9.98238C54.2789 9.1293 54.635 8.50745 55.1952 8.11813C55.7559 7.72768 56.4594 7.60915 57.3078 7.7616C58.1767 7.91763 58.8047 8.27171 59.1914 8.82214C59.5782 9.37408 59.6954 10.0709 59.5445 10.9118C59.4352 11.5227 59.2434 12.0045 58.968 12.3582C58.6925 12.7121 58.3404 12.9628 57.9136 13.1109C57.4856 13.259 56.9825 13.2803 56.4027 13.1763C55.8146 13.0705 55.3441 12.8893 54.9912 12.6324C54.6395 12.3746 54.3794 12.0213 54.2126 11.5719C54.0459 11.1236 54.0167 10.5933 54.1263 9.98238ZM55.737 10.2756C55.6426 10.8025 55.6731 11.1999 55.8276 11.465C55.9832 11.7304 56.2299 11.8939 56.5678 11.9548C56.914 12.017 57.2042 11.9522 57.4342 11.7611C57.6655 11.5692 57.8326 11.1822 57.9377 10.5967C58.0257 10.105 57.9903 9.72817 57.8328 9.46623C57.6742 9.20298 57.4259 9.04149 57.0857 8.98025C56.7599 8.92183 56.4767 8.99023 56.2386 9.18489C55.9992 9.37937 55.8323 9.74381 55.737 10.2756ZM61.6427 8.78596L63.0915 9.27836L64.0334 12.6957L64.9752 9.91887L66.4414 10.4173L64.736 15.4468L63.2697 14.9482L62.333 11.5498L61.3966 14.3114L59.9375 13.8153L61.6427 8.78596ZM68.9405 16.6528L67.2881 15.8035L66.6518 16.4604L65.1632 15.6953L69.3621 11.8832L70.9582 12.7035L70.3042 18.3379L68.7771 17.553L68.9405 16.6528ZM69.156 15.4713L69.5117 13.5081L68.1235 14.9405L69.156 15.4713ZM73.7347 14.4388L75.0684 15.3897L72.7481 18.6529L74.8362 20.1416L74.0798 21.2052L70.658 18.7656L73.7347 14.4388ZM82.7217 22.5337L83.7941 23.7725L81.4064 25.8448C81.1702 26.0494 80.9139 26.2066 80.6401 26.3148C80.3655 26.424 80.0813 26.4678 79.7868 26.4467C79.4924 26.4256 79.2391 26.3558 79.0253 26.2388C78.7278 26.0747 78.4325 25.8239 78.1404 25.4865C77.9714 25.2913 77.8013 25.0661 77.6285 24.8119C77.4557 24.5577 77.3424 24.3173 77.2894 24.0917C77.2365 23.8661 77.2282 23.6246 77.2668 23.367C77.3044 23.1084 77.3823 22.8872 77.4998 22.7018C77.6882 22.404 77.8809 22.1698 78.0776 21.9989L80.4656 19.927L81.538 21.1658L79.0931 23.2873C78.8749 23.4768 78.7566 23.6856 78.7387 23.9123C78.7206 24.1407 78.8048 24.3623 78.9907 24.5771C79.1742 24.7893 79.3795 24.9039 79.6061 24.9201C79.8306 24.9361 80.055 24.8479 80.277 24.6552L82.7217 22.5337ZM84.8919 25.2776L85.7186 26.5667L84.3288 29.8273L86.7934 28.2427L87.63 29.5473L83.1663 32.4172L82.3297 31.1125L83.712 27.87L81.2607 29.4459L80.4283 28.1475L84.8919 25.2776ZM88.4347 31.3099L89.1137 32.8099L84.2823 35.0028L83.6032 33.5028L88.4347 31.3099ZM89.6433 33.8661L90.1938 35.4899L86.9628 37.8524L90.9569 37.7401L91.4918 39.3172L85.8355 39.1576L85.2647 37.474L89.6433 33.8661ZM91.7268 40.6355L92.5015 44.9582L91.3858 45.1587L90.9016 42.457L90.0703 42.6062L90.5192 45.1106L89.4545 45.3019L89.0057 42.7977L87.9774 42.9822L88.4759 45.7643L87.2946 45.9765L86.5057 41.5736L91.7268 40.6355ZM87.3488 46.8889L92.6518 46.754L92.7213 49.4879C92.7341 49.9946 92.7008 50.384 92.6199 50.653C92.5402 50.9235 92.384 51.1439 92.1537 51.3141C91.9222 51.4846 91.6365 51.5734 91.2981 51.5821C91.0045 51.5896 90.7488 51.5331 90.532 51.4125C90.3139 51.293 90.1368 51.1243 89.9977 50.9065C89.9102 50.7691 89.8351 50.578 89.7733 50.3359C89.7129 50.533 89.6523 50.6766 89.5891 50.7674C89.5475 50.8277 89.4559 50.918 89.3168 51.0365C89.1779 51.1539 89.0699 51.2333 88.9931 51.2734L87.4815 52.1097L87.4342 50.2558L89.0292 49.3383C89.236 49.2216 89.3693 49.1193 89.4303 49.0313C89.5086 48.9103 89.5458 48.7749 89.542 48.6252L89.5385 48.4807L87.3907 48.5353L87.3488 46.8889ZM90.5382 48.4551L90.5559 49.1485C90.558 49.2228 90.5862 49.3679 90.6398 49.5818C90.6635 49.6899 90.7213 49.7775 90.8131 49.8431C90.9052 49.9102 91.0083 49.9421 91.1246 49.939C91.2961 49.9347 91.4267 49.877 91.5153 49.7659C91.6051 49.6549 91.6455 49.4499 91.638 49.1495L91.6196 48.4276L90.5382 48.4551ZM89.1611 52.5823L89.0608 54.1398C88.8068 54.1411 88.6069 54.1854 88.4641 54.2717C88.2307 54.4126 88.0935 54.6382 88.0538 54.9497C88.0242 55.1815 88.0553 55.3675 88.1483 55.5063C88.2412 55.6465 88.3594 55.7253 88.5028 55.7438C88.6389 55.7611 88.7687 55.7178 88.8916 55.6128C89.0147 55.5075 89.1504 55.2433 89.3027 54.8202C89.553 54.1268 89.8309 53.6462 90.1354 53.3762C90.4392 53.1033 90.7966 52.9931 91.2084 53.0459C91.4777 53.0804 91.7223 53.1913 91.9423 53.379C92.1637 53.5669 92.3223 53.8266 92.4192 54.1594C92.5163 54.4922 92.5299 54.9325 92.4599 55.4807C92.3741 56.154 92.184 56.6506 91.8876 56.9719C91.5928 57.2931 91.1679 57.4518 90.6131 57.4496L90.7177 55.9073C90.9614 55.8974 91.1466 55.8339 91.2708 55.7174C91.3966 55.6002 91.4733 55.4266 91.5027 55.1975C91.5268 55.0087 91.5046 54.86 91.4374 54.7541C91.3698 54.6484 91.278 54.5879 91.1628 54.5732C91.0794 54.5626 90.9998 54.5922 90.9225 54.6608C90.8433 54.7268 90.7565 54.9003 90.6598 55.1794C90.416 55.8712 90.1955 56.3604 89.9996 56.6468C89.8036 56.9345 89.5814 57.1343 89.3309 57.2443C89.0815 57.3546 88.813 57.3911 88.525 57.3544C88.1883 57.3112 87.8891 57.1784 87.6275 56.9556C87.3674 56.7316 87.1835 56.4438 87.0795 56.089C86.9752 55.7353 86.9555 55.3041 87.0206 54.7938C87.1346 53.8986 87.3866 53.3001 87.7749 52.9995C88.1627 52.6989 88.625 52.5599 89.1611 52.5823ZM91.7265 59.1962L91.355 60.8006L86.1872 59.6014L86.5587 57.9968L91.7265 59.1962ZM91.0153 62.0888L89.4122 66.8162L88.1703 66.3941L88.7087 64.8067L84.9274 63.5211L85.454 61.9686L89.2353 63.2543L89.7735 61.6667L91.0153 62.0888ZM88.9381 67.6902L88.107 69.3114L86.0286 69.4506L87.1292 71.2186L86.3026 72.8311L84.5002 69.5865L82.5239 68.5706L83.2752 67.1056L85.2515 68.1213L88.9381 67.6902Z" fill="#FEFEFE"/>
</g>
</g>
<defs>
<clipPath id="clip0_2001_133">
<rect width="100" height="100" fill="white"/>
</clipPath>
</defs>
</svg>
