<svg width="1384" height="677" viewBox="0 0 1384 677" fill="none" xmlns="http://www.w3.org/2000/svg">
<g style="mix-blend-mode:lighten">
<path d="M-160.152 386.629C-62.7443 385.357 9.39124 406.039 78.4308 419.995C132.009 430.826 203.682 445.589 281.755 438.351C326.35 434.217 354.969 424.224 384.75 414.467C406.276 407.418 429.931 400.797 454.801 394.637C502.894 382.732 556.132 372.857 610.346 363.528C666.325 353.899 723.121 344.692 777.178 334.101C837.89 322.203 890.604 306.789 961.766 300.854C1031.05 295.074 1100.71 297.315 1168.08 298.515C1252.52 300.021 1333.33 299.096 1417.35 288.941L1417.36 288.5C1333.53 298.708 1253.08 299.608 1168.88 297.954C1101.96 296.637 1032.78 294.22 963.802 299.895C893.035 305.711 840.535 321.14 779.312 332.576C725.054 342.711 667.837 351.168 611.299 360.046C556.781 368.607 503.082 377.743 454.854 389.214C429.857 395.155 406.189 401.639 384.868 408.592C355.031 418.326 326.673 428.372 281.84 432.353C202.946 439.352 131.364 423.591 78.5944 412.386C10.295 397.89 -61.5786 376.214 -159.831 377.228L-160.141 386.628L-160.152 386.629ZM-160.881 408.702C-65.4694 406.83 7.25834 425.22 78.0764 437.85C133.597 447.752 205.434 460.206 281.59 452.416C353.667 445.045 400.622 421.995 454.675 407.36C502.596 394.383 554.77 382.785 608.109 371.68C662.736 360.312 718.393 349.367 772.167 337.651C831.652 324.693 884.796 309.31 956.996 303.071C1027.01 297.024 1097.75 298.866 1166.22 299.785C1251.24 300.933 1332.84 299.942 1417.31 289.928L1417.33 289.529C1333.04 299.604 1251.76 300.571 1166.97 299.27C1098.95 298.234 1028.64 296.234 958.941 302.17C887.187 308.278 834.195 323.681 774.212 336.204C720.352 347.446 664.214 357.682 609.023 368.355C555.3 378.741 502.689 389.64 454.727 402.168C430.032 408.618 406.395 415.44 384.584 422.634C354.891 432.424 325.901 442.325 281.646 446.679C204.702 454.248 132.951 440.859 78.2165 430.571C8.12747 417.394 -64.375 398.077 -160.588 399.708L-160.881 408.702ZM-159.428 364.612C-60.0335 363.962 11.4801 386.96 78.7885 402.174C130.524 413.863 201.951 430.963 281.931 424.291C327.092 420.524 355.101 410.384 385.015 400.685C406.07 393.853 429.755 387.564 454.906 381.909C503.399 371.007 557.681 362.885 612.558 355.343C669.764 347.479 727.541 340.031 782.141 330.485C844.049 319.664 896.237 304.208 966.496 298.556C1035.08 293.035 1103.62 295.684 1169.93 297.155C1253.8 299.013 1333.79 298.148 1417.38 287.857L1417.39 287.305C1333.99 297.656 1254.36 298.495 1170.74 296.474C1104.91 294.884 1036.85 292.059 968.583 297.46C898.677 303.003 846.768 318.476 784.336 328.815C729.408 337.909 671.23 344.592 613.536 351.657C558.448 358.401 503.732 365.733 454.966 376.22C429.699 381.649 406.002 387.807 385.141 394.538C355.16 404.215 327.425 414.428 282.004 418.037C201.189 424.443 129.882 406.307 78.9344 394.254C12.3992 378.509 -58.8568 354.469 -159.119 354.85L-159.439 364.613L-159.428 364.612ZM-162.334 452.687C-72.5229 449.739 0.296134 463.255 73.095 472.909C131.589 480.666 201.685 488.968 273.583 481.39C351.482 473.184 403.608 448.926 457.132 431.99C504.466 417.009 553.381 402.4 603.584 388.128C658.396 372.56 714.716 357.399 771.781 342.456C828.221 327.674 880.991 313.351 955.025 307.092C1025.65 301.128 1097.26 302.264 1166.88 302.626C1251.51 303.063 1333.43 301.765 1417.24 292.186L1417.26 291.697C1332.84 301.407 1250.56 302.598 1165.4 302.028C1095.67 301.558 1023.82 300.325 953.039 306.484C879.16 312.917 826.055 327.787 768.9 342.32C711.556 356.897 654.355 371.525 598.678 386.6C547.519 400.449 497.749 414.689 450.119 429.46C398.899 445.344 350.69 467.74 277.456 475.76C204.613 483.738 133.647 474.782 75.3593 466.588C2.44237 456.338 -70.6929 441.806 -162.045 444.579L-162.314 452.671L-162.334 452.687ZM-163.051 474.424C-75.8718 471.039 -2.99879 482.325 70.643 490.452C130.44 497.052 199.757 503.472 269.683 495.905C348.428 487.386 400.822 463.85 452.747 446.215C499.995 430.167 547.319 414.134 595.884 398.372C648.375 381.334 702.39 364.624 758.862 348.55C813.141 333.107 865.795 318.097 939.081 310.888C1014.58 303.457 1092.25 304.365 1167.3 304.456C1251.69 304.567 1333.69 303.136 1417.18 293.782L1417.2 293.173C1333.09 302.653 1250.71 304 1165.75 303.767C1095.46 303.578 1023.18 302.691 952.078 308.824C877.4 315.273 824.265 329.574 768.558 344.903C711.31 360.657 655.976 376.935 602.201 393.581C552.732 408.895 504.581 424.515 457.062 440.273C404.375 457.74 351.655 481.8 273.453 490.55C202.663 498.467 132.538 491.486 72.8408 484.458C-1.00171 475.763 -74.1921 463.565 -162.812 466.823L-163.062 474.418L-163.051 474.424ZM-158.713 342.736C-57.3636 342.703 13.5186 368.032 79.1306 384.418C129.147 396.904 200.261 416.327 282.098 410.246C327.816 406.854 355.242 396.53 385.278 386.876C405.893 380.251 429.617 374.272 455.016 369.118C504.211 359.135 559.433 352.796 614.727 347.023C672.98 340.947 731.607 335.227 787.043 326.666C850.158 316.92 901.649 301.437 971.161 296.013C1039 290.721 1106.57 293.806 1171.74 295.54C1255.06 297.755 1334.26 296.941 1417.42 286.515L1417.44 285.759C1334.46 296.253 1255.62 297.049 1172.56 294.671C1107.87 292.816 1040.81 289.545 973.284 294.719C904.06 300.026 852.891 315.543 789.263 324.798C733.351 332.928 674.362 337.844 615.704 343.099C560.305 348.066 504.678 353.577 455.051 363.152C429.556 368.072 405.831 373.918 385.4 380.457C355.309 390.088 328.136 400.501 282.178 403.726C199.486 409.536 128.552 389.044 79.2819 376.204C14.4232 359.303 -56.1417 332.886 -158.39 332.645L-158.724 342.73L-158.713 342.736ZM-161.613 430.754C-69.0578 428.311 3.73119 444.2 75.5677 455.356C132.636 464.219 203.566 474.538 277.548 466.889C350.622 459.343 398.112 436.783 450.164 421.367C497.635 407.315 548.125 394.077 599.978 381.287C656.629 367.309 714.776 353.823 772.043 340.047C829.936 326.117 882.772 311.23 955.975 304.984C1026.29 298.986 1097.47 300.467 1166.53 301.109C1251.37 301.897 1333.13 300.746 1417.27 290.949L1417.29 290.529C1332.54 300.465 1250.44 301.493 1165.07 300.558C1095.95 299.796 1024.52 298.204 954.078 304.417C881.201 310.843 827.823 326.225 769.11 339.811C715.4 352.239 660.489 364.233 606.746 376.643C554.006 388.823 502.544 401.459 454.589 415.122C401.478 430.257 353.744 453.189 281.473 461.004C206.455 469.109 134.616 458.05 77.8485 448.748C5.93444 436.971 -67.1279 419.95 -161.334 422.18L-161.614 430.74L-161.613 430.754ZM-157.999 321.083C-55.7018 321.619 14.0421 348.864 77.3614 366.197C125.805 379.461 195.205 401.026 278.404 396.454C324.35 393.927 352.533 383.827 381.942 374.195C401.862 367.675 425.227 361.854 450.617 357.076C499.908 347.796 555.36 343.048 610.339 338.984C673.339 334.325 736.806 330.216 796.93 321.837C860.393 312.987 910.23 297.73 979.216 292.857C1045.98 288.136 1111.8 291.645 1175.51 293.608C1257.59 296.124 1335.46 295.249 1417.47 284.767L1417.51 283.732C1335.69 294.28 1258.15 295.153 1176.33 292.467C1113.09 290.391 1047.79 286.689 981.336 291.291C912.596 296.052 863.105 311.374 799.204 319.741C738.412 327.7 674.589 330.927 611.262 334.695C556.328 337.967 500.448 341.869 450.644 350.784C425.16 355.347 401.826 361.047 382.103 367.5C352.683 377.126 324.681 387.342 278.494 389.682C194.467 393.946 125.324 371.332 77.5417 357.716C14.9565 339.891 -54.4502 311.542 -157.646 310.738L-157.988 321.089L-157.999 321.083ZM909.994 371.129C729.632 391.79 656.335 447.951 585.43 492.954C512.165 539.454 440.267 591.164 268.044 618.068C128.803 639.819 -22.5256 637.668 -168.659 644.335L-168.754 647.174C-22.5292 640.688 128.795 642.198 268.008 620.498C440.92 593.539 512.292 542.155 585.431 495.436C656.11 450.293 728.898 394.165 909.743 373.418C1074.86 354.473 1248.07 363.795 1415.36 349.313L1415.43 347.068C1248.22 361.655 1075.08 352.215 910.005 371.128L909.994 371.129ZM912.408 384.34C730.538 404.845 659.22 459.062 589.799 504.551C549.627 530.883 510.998 557.878 455.547 582.632C410.503 602.746 351.339 618.312 277.61 630.17C136.05 652.927 -18.9863 654.236 -169.168 659.903L-169.241 662.273C-18.9976 656.817 135.98 654.976 277.582 632.334C351.243 620.552 410.576 605.201 455.666 585.124C511.286 560.355 549.792 533.295 589.864 506.916C659.136 461.322 730.115 407.24 912.289 386.673C1076.6 368.122 1248.53 376.605 1414.91 362.86L1414.99 360.531C1248.62 374.387 1076.73 365.809 912.408 384.34ZM-156.594 278.811C-52.6354 280.263 14.8443 311.123 73.9432 330.024C120.377 344.879 185.795 370.055 271.212 368.649C315.273 367.925 347.304 358.738 374.573 349.272C396.837 341.542 422.058 335.016 453.488 330.388C504.498 322.891 560.513 321.648 613.963 320.714C676.635 319.613 740.227 319.126 802.312 312.723C866.541 306.098 914.696 290.743 980.738 285.871C1049.86 280.769 1117.4 285.51 1182.58 288.023C1262.38 291.102 1337.85 290.026 1417.67 279.428C1417.69 278.715 1417.7 278.331 1417.73 277.519C1338.07 288.2 1262.91 289.29 1183.32 286.046C1118.65 283.409 1051.67 278.464 982.843 283.442C916.898 288.214 869.147 303.658 804.492 309.827C741.529 315.842 677.591 315.454 614.822 315.72C561.617 315.941 505.203 316.314 453.491 323.471C421.846 327.853 396.831 334.305 374.779 342.015C347.599 351.522 315.544 360.801 271.318 361.352C185.124 362.424 120.075 336.26 74.132 321.047C37.7557 309.004 2.93392 296.465 -37.7907 285.521C-70.7089 276.679 -106.392 268.876 -156.233 268.081L-156.595 278.804L-156.594 278.811ZM72.2825 312.178C118.261 327.889 190.163 358.355 282.408 354.378C328.425 352.403 354.755 341.745 383.304 332.275C404.366 325.289 431.002 319.666 460.626 316.172C513.278 309.962 569.434 310.637 622.079 311.052C684.395 311.56 748.403 312.479 811.53 306.511C875.46 300.464 922.219 285.138 988.029 280.768C1056.15 276.238 1121.96 281.386 1185.82 284.083C1264.59 287.407 1339 286.198 1417.79 275.534L1417.87 273.023C1339.23 283.779 1265.08 285.013 1186.49 281.525C1123.12 278.716 1057.85 273.364 990.008 277.772C924.264 282.045 877.867 297.485 813.623 303.135C749.58 308.76 685.197 306.989 622.906 305.706C570.5 304.628 513.989 303.106 460.58 308.959C430.871 312.217 404.352 317.731 383.481 324.7C355.021 334.205 328.803 345.033 282.518 346.886C241.602 348.532 206.306 342.053 178.817 335.69C138.126 326.29 105.101 314.509 72.4742 302.998C36.6415 290.362 2.26 277.267 -38.3013 265.771C-70.433 256.663 -105.557 248.432 -155.57 247.521L-155.923 258.333C-106.279 259.18 -71.0004 267.111 -38.5987 276.02C1.89762 287.152 36.3641 299.891 72.2807 312.157L72.2825 312.178ZM-163.761 495.882C-10.3544 489.086 124.624 530.073 280.457 508.624C356.445 498.164 409.22 474.95 459.534 456.721C506.605 439.665 552.353 422.359 599.348 405.289C650.051 386.879 702.249 368.71 758.749 351.538C811.719 335.432 864.348 320.954 938.36 313.763C1014.19 306.393 1092.21 306.948 1167.8 306.768C1251.92 306.568 1333.93 305.011 1417.1 295.887L1417.13 295.125C1334.09 304.299 1252.31 305.842 1168.32 305.946C1093.08 306.039 1015.41 305.355 939.826 312.633C866.146 319.731 813.625 334.213 760.301 350.065C703.913 366.829 651.197 384.46 600.012 402.377C552.642 418.958 506.521 435.789 459.563 452.451C408.885 470.434 356.334 493.753 280.527 503.98C123.538 525.158 -9.42917 482.231 -163.528 488.804L-163.761 495.889L-163.761 495.882ZM-157.288 299.744C-54.1252 300.774 14.496 329.871 75.6302 348.043C122.898 362.097 190.381 385.579 274.779 382.585C320.773 380.946 349.937 371.078 378.781 361.456C401.124 354.005 427.795 347.591 457.944 342.829C508.578 334.828 564.406 332.124 618.685 329.741C681.909 326.958 745.758 324.482 806.675 316.728C870.229 308.651 918.429 293.57 986.983 289.231C1052.67 285.067 1116.8 288.98 1179.14 291.152C1260.04 293.964 1336.68 292.991 1417.55 282.459L1417.6 281.038C1336.89 291.654 1260.59 292.617 1179.92 289.638C1118.05 287.361 1054.45 283.253 989.058 287.292C920.707 291.516 872.835 306.692 808.932 314.327C747.244 321.697 683.006 323.296 619.618 325.207C565.463 326.84 509.235 328.667 457.949 336.288C427.679 340.782 401.082 347.071 378.959 354.473C350.127 364.116 321.101 374.09 274.856 375.55C189.661 378.232 122.489 353.703 75.7985 339.312C15.3798 320.677 -52.8943 290.467 -156.944 289.19L-157.287 299.758L-157.288 299.744ZM-39.5591 238.132C0.595559 250.202 34.2113 263.911 69.0693 277.207C101.331 289.511 133.69 302.071 173.425 312.561C199.882 319.555 233.903 327.265 275.36 326.867C354.224 326.125 380.69 297.675 451.571 289.944C509.218 283.658 570.614 287.645 624.697 290.405C685.661 293.517 749.7 297.376 815.067 292.935C883.688 288.276 931.49 271.39 1001.28 267.761C1067.51 264.316 1130.12 270.166 1191.65 273.165C1268.64 276.915 1341.25 275.367 1418.15 264.539L1418.28 260.434C1336.44 272.094 1260.42 272.864 1179.33 268.396C1119.76 265.116 1058.01 259.634 993.309 263.819C924.975 268.243 877.928 285.095 808.175 288.693C742.351 292.087 679.165 287.287 618.681 283.58C565.813 280.34 504.402 275.825 447.222 282.327C377.372 290.263 352.292 319.293 271.855 318.922C230.325 318.733 196.902 310.565 170.784 303.317C131.536 292.427 99.4625 279.611 67.3683 267.034C32.9515 253.544 -0.317704 239.658 -40.2628 227.43C-70.7839 218.085 -104.6 209.345 -154.293 208.419L-154.65 219.196C-104.782 220.163 -70.5583 228.81 -39.5703 238.126L-39.5591 238.132ZM1181.98 260.137C1123.39 256.732 1063.05 250.928 999.141 254.616C930.944 258.547 884.697 275.64 816.013 279.14C749.379 282.539 685.711 276.778 626.068 272.109C573.816 268.025 512.632 261.9 453.847 267.16C379.963 273.774 360.883 302.392 282.75 304.846C242.088 306.127 208.108 298.525 182.72 291.789C143.145 281.292 111.693 268.51 80.7136 255.992C46.1135 242.01 13.2441 227.592 -25.1326 214.427C-57.9056 203.188 -95.6497 191.004 -153.655 190.05L-154.002 200.694C-104.076 201.6 -70.3503 210.515 -40.0127 219.953C-0.0270089 232.394 33.1876 246.501 67.5386 260.206C99.5987 272.995 131.629 286.039 170.897 297.15C196.864 304.502 230.23 312.871 271.958 313.111C352.939 313.6 376.763 284.127 447.117 276.347C504.767 269.976 566.532 275.094 619.06 278.692C679.497 282.829 742.902 288.16 809.374 284.965C879.307 281.602 926.086 264.607 994.499 260.246C1059.04 256.13 1120.45 261.748 1179.74 265.103C1260.76 269.681 1336.62 268.87 1418.41 257.124C1418.48 255.187 1418.52 254.165 1418.59 252.011C1337.6 263.795 1262.35 264.795 1182.01 260.135L1181.98 260.137ZM-168.212 631.032C-21.2686 623.65 131.174 628.915 271.548 606.482C441.487 579.325 515.278 525.197 589.968 479.363C663.002 434.544 740.292 379.374 922.289 360.266C1084.51 343.23 1252.2 352.39 1415.74 337.647L1415.81 335.527C1252.36 350.388 1084.82 341.095 922.666 358.077C741.331 377.069 663.387 432.201 590.046 476.811C515.17 522.362 440.689 576.755 271.58 603.78C131.091 626.231 -21.2529 620.176 -168.11 627.689L-168.223 631.033L-168.212 631.032ZM80.8183 249.735C111.771 262.429 143.165 275.398 182.777 286.066C208.033 292.869 241.995 300.633 282.817 299.352C361.547 296.893 379.224 267.859 453.683 261.352C512.861 256.189 574.336 262.818 626.315 267.192C685.873 272.21 749.773 278.417 816.94 275.13C885.722 271.767 931.774 254.518 1000.06 250.642C1063.86 247.012 1123.91 252.934 1182.26 256.395C1262.58 261.163 1337.73 260.102 1418.68 248.237C1418.76 245.859 1418.8 244.607 1418.89 241.97C1338.69 253.878 1264.07 255.156 1184.35 250.327C1126.61 246.832 1067.58 240.741 1004.39 243.959C936.145 247.441 890.801 264.724 823.283 268.384C751.212 272.29 682.784 264.617 619.969 258.841C569.351 254.184 507.712 247.165 449.267 252.771C376.294 259.777 359.921 289.551 279.326 291.085C238.427 291.864 204.967 283.643 180.12 276.643C140.988 265.617 109.863 252.443 79.0713 239.524C44.9526 225.206 12.4614 210.489 -25.7493 197.037C-57.7785 185.764 -95.0785 173.303 -153.083 172.586L-153.428 183.021C-95.1741 183.897 -57.4957 196.296 -24.9505 207.612C13.4537 220.963 46.276 235.566 80.8289 249.734L80.8183 249.735ZM-164.452 516.968C-14.5507 509.625 121.755 543.722 272.931 523.621C349.627 513.426 402.33 491.424 451.174 472.869C501.731 453.67 548.854 433.882 597.363 414.332C645.739 394.843 695.461 375.496 751.075 357.366C805.839 339.515 861.685 324.292 941.565 316.875C1017.28 309.844 1094.98 310.114 1170.51 309.681C1253.59 309.199 1334.91 307.467 1417.01 298.65L1417.04 297.706C1334.34 306.647 1252.55 308.31 1168.87 308.7C1093.13 309.054 1015.07 308.719 939.167 315.956C859.073 323.594 803.257 339.393 747.989 357.213C692.265 375.179 641.857 394.267 592.723 413.511C546.999 431.422 502.347 449.521 455.299 467.188C405.952 485.727 353.108 508.299 276.627 518.74C123.73 539.624 -12.9245 503.209 -164.247 510.409L-164.463 516.962L-164.452 516.968ZM-25.5793 190.794C12.6552 204.391 45.1073 219.265 79.1751 233.727C109.937 246.788 141.012 260.113 180.188 271.274C204.922 278.32 238.372 286.674 279.398 285.876C360.639 284.291 375.692 254.086 449.083 247.091C507.712 241.51 569.812 248.92 620.067 253.805C682.633 259.889 751.521 267.931 823.959 264.069C891.524 260.468 936.662 243.029 1005.06 239.589C1068.16 236.421 1126.98 242.608 1184.51 246.156C1264.28 251.079 1338.84 249.73 1419.03 237.732L1419.28 230.144C1339.77 242.199 1265.72 243.78 1186.41 238.823C1129.38 235.256 1071.55 228.931 1009.02 231.707C940.339 234.761 896.35 252.172 829.904 256.237C757.656 260.653 688.242 252.338 626.713 245.93C576.447 240.69 515.089 232.53 455.524 237.072C375.661 243.155 362.412 276.67 275.981 277.365C234.935 277.705 201.982 268.95 177.594 261.726C138.893 250.271 108.069 236.77 77.4604 223.521C43.8208 208.957 11.7028 194.004 -26.3549 180.356C-57.6877 169.119 -94.6101 156.47 -152.55 156.117C-152.66 159.494 -152.77 162.865 -152.89 166.244C-94.6721 166.844 -57.4206 179.477 -25.5793 190.794ZM-26.1963 174.694C11.8814 188.444 43.9677 203.518 77.5645 218.198C108.14 231.554 138.922 245.178 177.654 256.735C201.949 263.995 234.91 272.84 276.049 272.471C363.238 271.672 375.037 237.682 455.301 231.549C515.024 226.985 576.668 235.475 626.701 240.854C688.087 247.45 757.785 256.081 830.339 251.616C896.835 247.519 940.544 229.959 1009.46 226.932C1071.92 224.191 1129.58 230.608 1186.47 234.209C1265.85 239.229 1339.91 237.569 1419.44 225.422L1419.74 216.358C1340.16 228.67 1266.07 230.486 1186.5 225.35C1129.81 221.683 1072.44 215.134 1010.08 217.818C940.61 220.804 897.534 238.642 830.921 242.861C757.89 247.474 687.688 238.344 626.554 231.475C576.94 225.897 514.781 216.889 454.864 221.561C373.924 227.875 364.796 262.731 276.198 263.755C234.898 264.229 201.901 255.234 177.774 247.945C138.973 236.213 108.272 222.422 77.7443 208.886C44.2065 194.034 12.2203 178.77 -25.9254 164.858C-56.7927 153.578 -93.6804 140.606 -152.047 140.723L-152.37 150.452C-94.263 150.651 -57.3605 163.434 -26.2075 174.688L-26.1963 174.694ZM1191.21 276.008C1129.36 273.094 1066.34 267.385 999.905 270.926C930.12 274.638 882.071 291.386 813.614 296.33C748.962 300.999 685.202 297.757 624.169 295.167C569.774 292.86 508.719 289.568 451.667 296.058C381.501 304.037 353.633 332.085 275.283 332.968C234.068 333.435 199.983 325.968 173.346 319.102C133.646 308.874 101.213 296.564 68.9211 284.514C34.0017 271.481 0.312705 258.023 -39.7982 246.201C-70.9884 237.007 -105.299 228.571 -154.91 227.616L-155.272 238.45C-105.492 239.389 -70.7652 247.705 -39.089 256.847C1.22903 268.484 35.2627 281.743 70.6525 294.551C103.121 306.314 135.847 318.332 176.031 328.132C203.081 334.724 237.782 341.696 278.847 340.629C324.936 339.442 352.641 328.905 380.37 319.334C400.838 312.262 426.239 306.543 456.082 303.224C509.112 297.307 565.426 299.251 616.926 300.809C678.598 302.679 742.169 305.367 806.567 300.72C875.957 295.712 924.919 278.917 994.868 274.779C1062.03 270.803 1126.19 276.317 1188.83 279.18C1266.68 282.728 1340.11 281.363 1417.94 270.618C1417.98 269.401 1417.99 268.751 1418.04 267.374C1341.04 278.127 1268.28 279.633 1191.2 276.002L1191.21 276.008ZM-165.13 537.607C-17.8045 529.856 121.677 558.037 269.177 538.096C345.899 527.724 399.262 506.652 447.16 487.764C498.115 467.664 543.778 446.726 590.558 425.987C637.164 405.326 684.722 384.691 739.548 365.405C792.027 346.938 846.904 330.917 926.305 322.561C1000.88 314.706 1078.47 314.156 1153.6 313.509C1242.2 312.742 1329.18 311.424 1416.92 302.221L1416.97 301.074C1329.34 310.329 1242.53 311.63 1154.04 312.311C1079.17 312.892 1001.85 313.341 927.466 321.124C848.357 329.405 793.522 345.422 740.726 363.687C685.974 382.625 637.985 402.853 591.024 423.128C543.9 443.48 497.903 464.037 447.143 483.819C399.031 502.566 345.979 523.784 269.231 533.984C120.921 553.699 -17.1344 523.952 -164.929 531.592L-165.13 537.614L-165.13 537.607ZM-165.794 557.7C-17.4943 549.513 129.388 573.327 275.959 551.016C350.376 539.688 403.481 519.302 449.888 500.208C500.438 479.406 544.252 457.596 589.087 435.994C671.103 396.49 765.094 343.864 929.961 327.243C1090.92 311.026 1254.7 323.337 1416.76 306.755L1416.8 305.398C1254.96 322.086 1091.7 309.539 930.948 325.648C767.646 342.015 672.228 394.184 589.472 433.184C544.33 454.458 500.209 475.94 449.858 496.466C403.303 515.449 350.413 535.982 276.017 547.189C128.805 569.364 -17.099 544.108 -165.608 552.224L-165.794 557.693L-165.794 557.7ZM-166.428 577.178C-20.9458 568.974 125.794 587.104 268.819 565.916C347.957 554.188 404.791 533.276 452.59 512.835C502.69 491.418 544.783 468.865 587.846 446.539C665.799 406.105 753.658 352.557 919.153 334.499C1082.57 316.664 1251.56 328.851 1416.59 312.411L1416.64 310.845C1255.15 327.054 1091.65 315.639 931.101 331.575C762.701 348.293 672.688 400.795 592.911 441.352C549.087 463.636 506.51 486.149 456.49 507.621C408.451 528.237 351.837 549.813 272.322 561.847C128.056 583.692 -19.5408 564 -166.256 572.246L-166.417 577.177L-166.428 577.178ZM-167.64 613.924C-19.8772 605.938 133.269 615.427 275.14 592.336C435.732 566.208 512.045 512.835 586.055 469.496C661.16 425.52 741.634 369.344 920.807 350.275C1083.55 332.961 1251.93 343.049 1416.07 327.694L1416.14 325.735C1252.12 341.192 1084 330.954 921.334 348.198C743.051 367.095 661.701 423.142 586.209 466.839C511.912 509.841 434.85 563.415 275.188 589.34C133.103 612.416 -19.8095 601.978 -167.512 610.049L-167.642 613.903L-167.64 613.924ZM-167.051 595.95C-18.2646 587.607 135.009 601.791 278.777 578.102C435.609 552.259 515.148 497.296 591.4 455.149C666.747 413.502 750.111 360.019 919.767 341.744C1082.92 324.17 1251.71 335.267 1416.35 319.35L1416.41 317.58C1251.94 333.607 1083.47 322.314 920.457 339.82C751.851 357.923 667.516 411.152 591.648 452.477C515.018 494.212 434.582 549.277 278.845 574.846C134.753 598.502 -18.1207 583.193 -166.894 591.57L-167.04 595.956L-167.051 595.95Z" fill="url(#paint0_linear_68_2)" fill-opacity="0.4"/>
</g>
<defs>
<linearGradient id="paint0_linear_68_2" x1="981.587" y1="104.716" x2="512.046" y2="765.211" gradientUnits="userSpaceOnUse">
<stop offset="0.0001" stop-color="#EB1C20"/>
<stop offset="1" stop-color="#2B2065"/>
</linearGradient>
</defs>
</svg>
