<svg width="50" height="51" viewBox="0 0 50 51" fill="none" xmlns="http://www.w3.org/2000/svg">
<circle cx="25" cy="25.5" r="25" transform="rotate(90 25 25.5)" fill="white"/>
<path d="M21.6518 37.0044L11.808 27.1607C11.6551 27.0083 11.5337 26.8272 11.4509 26.6277C11.3681 26.4283 11.3255 26.2145 11.3255 25.9986C11.3255 25.7826 11.3681 25.5688 11.4509 25.3694C11.5337 25.17 11.6551 24.9889 11.808 24.8365L21.6518 14.9927C21.96 14.6845 22.378 14.5114 22.8139 14.5114C23.2497 14.5114 23.6678 14.6845 23.976 14.9927C24.2842 15.3009 24.4573 15.7189 24.4573 16.1548C24.4573 16.5907 24.2842 17.0087 23.976 17.3169L16.9336 24.3593H37.0312C37.4664 24.3593 37.8837 24.5322 38.1913 24.8398C38.499 25.1475 38.6719 25.5648 38.6719 25.9999C38.6719 26.4351 38.499 26.8524 38.1913 27.16C37.8837 27.4677 37.4664 27.6406 37.0312 27.6406H16.9336L23.9773 34.6829C24.2856 34.9912 24.4587 35.4092 24.4587 35.8451C24.4587 36.2809 24.2856 36.699 23.9773 37.0072C23.6691 37.3154 23.2511 37.4885 22.8152 37.4885C22.3794 37.4885 21.9613 37.3154 21.6531 37.0072L21.6518 37.0044Z" fill="black"/>
</svg>
