<svg width="209" height="71" viewBox="0 0 209 71" fill="none" xmlns="http://www.w3.org/2000/svg">
<path d="M32.55 0.350098C52.95 0.350098 68.55 14.3501 68.55 35.1501C68.55 56.0501 52.85 70.3501 32.55 70.3501H9.64999C5.04999 70.3501 1.24999 67.2501 1.24999 61.9501V9.0501C1.24999 3.7501 5.04999 0.350098 9.64999 0.350098H32.55Z" fill="#FF6900"/>
<path d="M12.15 70.3502C17.95 67.1502 20.85 64.1502 22.95 61.3502C26.85 63.0502 30.65 63.8502 34.05 63.8502C40.45 63.8502 45.85 60.9501 48.65 55.6501C51.55 53.9501 53.45 50.3502 53.65 47.7502C55.45 45.4502 55.75 42.5502 55.25 40.6502C55.15 40.1502 54.75 40.1501 54.05 40.5501C48.35 43.9501 42.75 45.6501 37.45 45.6501C34.25 45.6501 30.95 45.1501 27.45 44.1501C27.15 40.3501 26.45 37.2501 26.15 35.3501C25.75 32.8501 26.35 30.9501 29.05 30.9501C31.05 30.9501 34.85 31.4501 37.85 32.8501C40.85 34.2501 42.55 36.8501 43.85 36.8501C44.35 36.8501 44.85 36.5501 44.85 35.4501C44.85 33.2501 44.05 29.8501 43.15 28.5501C45.95 28.3501 48.15 28.4501 49.35 28.5501C51.95 29.0501 52.05 30.3501 52.55 31.1501C53.05 31.9501 53.95 32.3501 54.95 32.3501C56.85 32.3501 58.05 31.3501 58.05 27.7501C58.05 19.8501 53.05 16.0501 47.85 16.0501C43.55 16.0501 41.95 16.9501 37.85 16.9501C34.95 16.9501 32.55 11.0501 29.25 10.3501C27.85 7.15015 24.55 6.75015 22.55 8.35015C20.75 7.25015 17.85 7.85015 17.75 9.85015C15.65 9.25015 12.95 10.3501 14.15 13.0501C9.04999 13.1501 8.05 17.7501 11.55 18.2501C7.05 20.7501 9.14999 25.1501 12.85 24.2501C13.15 27.3501 14.35 32.3501 14.35 35.8501C14.35 40.6502 12.15 41.7501 9.14999 41.7501C6.74999 41.7501 3.34999 40.8501 0.949993 40.2501V43.6501C3.34999 44.2501 6.84999 44.9501 9.54999 44.9501C14.25 44.9501 16.85 42.1501 16.85 36.9501C16.85 30.5501 14.75 24.6501 15.45 20.9501L15.25 20.7501C12.95 23.1501 11.35 22.5501 11.25 21.7501C10.95 20.1501 13.65 18.2501 15.25 17.5501C15.25 17.4501 15.35 17.3501 15.35 17.2501C13.85 17.4501 12.15 17.2501 12.05 16.2501C11.95 15.0501 14.45 13.8501 17.75 14.1501C17.85 14.0501 17.85 14.0501 17.95 13.9501C17.75 13.8501 17.55 13.7501 17.25 13.6501C16.45 13.2501 16.15 12.4501 16.45 11.9501C16.75 11.3501 17.65 11.1501 18.45 11.1501C19.65 11.1501 20.65 11.4501 21.35 11.7501C21.45 11.7501 21.55 11.6501 21.55 11.6501C21.25 11.4501 21.05 11.2501 20.95 10.9501C20.75 10.6501 20.65 10.1501 21.05 9.85015C21.55 9.45015 22.65 9.35015 23.75 10.3501C23.95 10.5501 24.15 10.7501 24.35 10.9501C24.45 10.9501 24.55 10.9501 24.75 10.8501C24.55 10.5501 24.45 10.3501 24.35 10.0501C24.25 9.65015 24.45 9.35015 24.85 9.15015C25.35 9.05015 25.85 9.25015 26.15 9.65015C26.45 10.1501 26.65 10.7501 26.75 11.1501C24.75 11.5501 18.65 12.9502 18.65 20.3502C18.65 27.5501 24.65 35.1502 24.65 46.3502C24.65 50.4501 23.75 54.5502 20.05 59.2502C17.15 62.9502 12.65 66.4501 5.64999 69.3502C6.84999 69.9501 8.24999 70.2502 9.74999 70.2502H12.15V70.3502ZM40.45 24.8501C41.15 22.7501 41.75 21.1501 42.95 19.9501C44.15 18.6501 45.45 18.2501 48.45 18.2501C52.55 18.2501 55.95 22.3501 55.95 28.1501C55.95 29.0501 54.85 28.9501 54.45 28.2501C53.05 25.8501 51.15 25.4501 48.25 25.2501C46.05 25.1501 43.45 25.3501 41.05 25.4501C40.55 25.3501 40.35 25.0501 40.45 24.8501ZM27.45 47.9501C30.65 48.8502 35.15 49.3501 38.85 49.0501C45.35 48.5501 50.25 46.1502 52.95 44.4501C51.35 48.6502 45.15 51.1502 39.15 51.9501C39.15 52.2501 39.05 52.5502 39.05 52.8502C43.55 52.6502 47.85 51.1502 49.75 49.8502C48.65 53.9501 43.15 55.5502 38.15 55.8502C38.05 56.1502 37.85 56.4502 37.75 56.7502C40.65 56.8502 43.45 56.2502 45.05 55.7502C43.55 58.5502 38.45 60.8502 33.15 60.8502C30.55 60.8502 27.35 60.3501 24.55 59.0501C26.55 55.1501 27.35 51.4501 27.45 47.9501Z" fill="black"/>
<path d="M1.24999 53.95C3.74999 53.45 6.14999 53.05 6.14999 53.05L6.44999 51.75C5.34999 51.65 3.14999 51.75 1.24999 51.75V53.95Z" fill="black"/>
<path d="M27.65 14.3502C28.55 14.0502 29.75 14.9502 30.45 16.2502C31.15 17.5502 30.95 18.8502 30.05 19.1502C29.15 19.4502 27.95 18.6502 27.35 17.2502C27.25 17.0502 27.15 16.8502 27.15 16.7502H27.35C27.65 17.0502 27.95 17.0502 28.15 16.9502C28.45 16.7502 28.45 16.2502 28.15 15.7502C27.95 15.3502 27.55 14.9502 27.15 15.0502V14.9502C27.25 14.6502 27.45 14.4502 27.65 14.3502ZM33.75 27.7502C29.95 26.9502 25.65 25.7502 23.45 22.4502C23.45 22.3502 23.35 22.3502 23.25 22.3502C23.15 22.3502 23.15 22.4502 23.15 22.5502C23.15 22.7502 23.15 22.9502 23.25 23.1502L22.95 23.2502C22.35 22.4502 22.25 21.4502 22.85 20.6502C23.65 19.6502 25.45 19.7502 26.45 20.3502L26.35 20.6502C25.85 20.5502 25.25 20.5502 24.85 20.8502C24.55 21.0502 24.45 21.3502 24.65 21.7502C26.55 25.2502 31.95 25.9502 38.35 25.4502C39.05 25.3502 39.15 25.0502 39.25 24.7502C39.85 22.5502 40.85 20.5502 42.35 19.0502C41.15 19.2502 40.05 19.2502 39.15 19.3502C35.85 19.5502 33.95 19.1502 33.35 18.6502L33.45 18.3502C33.85 18.4502 34.15 18.4502 34.25 18.3502C34.35 18.2502 34.25 18.1502 34.15 17.9502C33.55 17.3502 30.65 14.4502 30.65 14.4502C30.35 11.9502 26.75 11.9502 25.35 14.3502L24.65 14.2502C24.75 13.7502 25.05 13.2502 25.25 12.9502C22.25 13.6502 20.55 16.3502 20.25 18.9502C18.95 30.0502 35.85 27.4502 40.65 31.9502C40.75 32.0502 40.95 32.3502 41.15 32.1502C41.35 31.5502 39.15 28.9502 33.75 27.7502Z" fill="white"/>
<path d="M52.95 44.4502C50.25 46.2502 45.35 48.6502 38.85 49.0502C35.15 49.3502 30.75 48.8502 27.45 47.9502C27.45 49.0502 27.25 50.1502 27.15 51.2502C28.95 51.7502 32.15 52.3502 36.85 52.4502C36.65 53.7502 35.35 57.9502 32.15 60.6502C38.05 60.8502 43.45 58.5502 45.05 55.5502C43.35 56.0502 40.65 56.6502 37.75 56.5502C37.95 56.2502 38.05 55.9502 38.15 55.6502C43.15 55.4502 48.65 53.7502 49.75 49.6502C47.85 50.9502 43.55 52.4502 39.05 52.6502C39.15 52.3502 39.15 52.0502 39.15 51.7502C45.05 51.1502 51.25 48.5502 52.95 44.4502Z" fill="white"/>
<path d="M102.25 41.8506H87.65C85.95 41.8506 85.05 43.0506 85.05 44.4506V61.1506C85.05 62.7506 86.25 63.7506 87.75 63.7506C89.15 63.7506 90.35 62.8506 90.35 61.1506V46.9506H99.65V61.1506C99.65 62.7506 100.85 63.7506 102.25 63.7506C103.65 63.7506 104.85 62.7506 104.85 61.1506V44.4506C104.85 43.0506 103.85 41.8506 102.25 41.8506Z" fill="white"/>
<path d="M127.65 41.8506H127.45C125.95 41.8506 124.85 42.6506 123.85 44.1506L115.35 56.2506V44.4506C115.35 42.8506 114.35 41.8506 112.85 41.8506C111.35 41.8506 110.35 42.7506 110.35 44.4506V60.5506C110.35 62.2506 111.45 63.4506 113.25 63.4506H113.45C115.05 63.4506 116.15 62.6506 117.15 61.1506L125.65 49.0506V60.9506C125.65 62.5506 126.65 63.5506 128.15 63.5506C129.55 63.5506 130.65 62.6506 130.65 60.9506V44.8506C130.65 42.9506 129.55 41.8506 127.65 41.8506Z" fill="white"/>
<path d="M156.75 58.4504H155.45V44.2504C155.45 42.6504 154.25 41.6504 152.75 41.6504C151.35 41.6504 150.15 42.5504 150.15 44.2504V58.4504H141.05V44.2504C141.05 42.6504 139.95 41.6504 138.45 41.6504C136.95 41.6504 135.85 42.5504 135.85 44.2504V60.9504C135.85 62.3504 136.75 63.4504 138.45 63.4504H154.15V65.7504C154.15 67.3504 155.25 68.3504 156.65 68.3504C158.15 68.3504 159.25 67.4504 159.25 65.7504V60.9504C159.35 59.3504 158.35 58.4504 156.75 58.4504Z" fill="white"/>
<path d="M183.05 58.4504H181.65V44.2504C181.65 42.6504 180.45 41.6504 178.95 41.6504C177.55 41.6504 176.35 42.5504 176.35 44.2504V58.4504H167.25V44.2504C167.25 42.6504 166.15 41.6504 164.65 41.6504C163.15 41.6504 162.05 42.5504 162.05 44.2504V60.9504C162.05 62.3504 162.95 63.4504 164.65 63.4504H180.35V65.7504C180.35 67.3504 181.45 68.3504 182.85 68.3504C184.35 68.3504 185.45 67.4504 185.45 65.7504V60.9504C185.55 59.3504 184.55 58.4504 183.05 58.4504Z" fill="white"/>
<path d="M208.55 59.8502L201.45 44.3502C200.65 42.6502 199.55 41.9502 197.95 41.9502H197.65C195.95 41.9502 194.85 42.6502 194.05 44.3502L186.95 59.8502C186.25 61.3502 186.75 62.7502 188.15 63.2502C189.45 63.7502 190.65 63.4502 191.35 61.9502L192.95 58.5502C194.35 59.0502 196.15 59.2502 197.85 59.2502C199.65 59.2502 201.25 59.0502 202.55 58.5502L204.05 61.9502C204.75 63.4502 206.05 63.6502 207.25 63.2502C208.65 62.7502 209.25 61.3502 208.55 59.8502ZM197.75 54.6502C196.65 54.6502 195.55 54.5502 194.65 54.2502L197.65 47.4502L200.65 54.2502C199.95 54.5502 198.85 54.6502 197.75 54.6502Z" fill="white"/>
<path d="M108.45 23.7505H107.15V9.75049C107.15 8.35049 106.25 7.25049 104.55 7.25049H92.55C91.15 7.25049 90.25 8.15049 90.25 9.85049V13.2505C90.25 15.6505 90.25 17.5505 89.75 19.6505C89.35 21.6505 88.85 22.8505 88.05 23.8505H87.45C85.75 23.8505 84.95 24.8505 84.95 26.4505V31.2505C84.95 32.8505 86.05 33.8505 87.55 33.8505C89.05 33.8505 90.15 32.9505 90.15 31.2505V28.9505H105.95V31.2505C105.95 32.8505 107.05 33.8505 108.45 33.8505C109.95 33.8505 111.05 32.9505 111.05 31.2505V26.4505C111.05 24.8505 110.25 23.7505 108.45 23.7505ZM101.95 23.7505H93.45C93.95 22.6505 94.35 21.6505 94.75 20.0505C95.05 18.4505 95.25 16.8505 95.25 14.7505V12.2505H101.85V23.7505H101.95Z" fill="white"/>
<path d="M123.35 7.05029C117.05 7.05029 112.25 11.7503 112.25 18.0503C112.25 24.4503 117.05 29.0503 123.35 29.0503C129.65 29.0503 134.45 24.2503 134.45 17.9503C134.45 11.7503 129.55 7.05029 123.35 7.05029ZM123.35 24.1503C119.95 24.1503 117.45 21.5503 117.45 18.0503C117.45 14.5503 119.95 12.0503 123.35 12.0503C126.85 12.0503 129.25 14.6503 129.25 18.0503C129.25 21.5503 126.95 24.1503 123.35 24.1503Z" fill="white"/>
<path d="M173.15 7.05029C166.85 7.05029 162.05 11.7503 162.05 18.0503C162.05 24.4503 166.85 29.0503 173.15 29.0503C179.45 29.0503 184.25 24.2503 184.25 17.9503C184.15 11.7503 179.35 7.05029 173.15 7.05029ZM173.15 24.1503C169.75 24.1503 167.25 21.5503 167.25 18.0503C167.25 14.5503 169.75 12.0503 173.15 12.0503C176.65 12.0503 179.05 14.6503 179.05 18.0503C179.05 21.5503 176.65 24.1503 173.15 24.1503Z" fill="white"/>
<path d="M158.45 23.7505H157.15V9.75049C157.15 8.35049 156.25 7.25049 154.55 7.25049H142.55C141.15 7.25049 140.25 8.15049 140.25 9.85049V13.2505C140.25 15.6505 140.25 17.5505 139.75 19.6505C139.35 21.6505 138.85 22.8505 138.05 23.8505H137.45C135.75 23.8505 134.95 24.8505 134.95 26.4505V31.2505C134.95 32.8505 136.05 33.8505 137.55 33.8505C139.05 33.8505 140.15 32.9505 140.15 31.2505V28.9505H155.95V31.2505C155.95 32.8505 157.05 33.8505 158.55 33.8505C160.05 33.8505 161.15 32.9505 161.15 31.2505V26.4505C161.05 24.8505 160.15 23.7505 158.45 23.7505ZM151.85 23.7505H143.35C143.85 22.6505 144.25 21.6505 144.65 20.0505C144.95 18.4505 145.15 16.8505 145.15 14.7505V12.2505H151.75V23.7505H151.85Z" fill="white"/>
</svg>
